<svg width="162" height="156" viewBox="0 0 162 156" fill="none" xmlns="http://www.w3.org/2000/svg">
<path d="M59.1318 19.2542C54.1638 13.7416 52.7728 9.96985 43.9298 3.68359C34.0933 3.68359 16.1093 21.0917 22.1702 30.376C33.1991 42.6584 75.9234 43.9156 81.5869 43.0452C82.2824 41.9814 62.6093 23.4128 59.1318 19.2542Z" fill="#FFCF48"/>
<path d="M54.0645 17.4165C49.6927 12.0974 48.401 8.51904 40.3529 2.61963C31.51 2.61963 15.3145 19.254 20.7792 28.0548C30.7151 39.7569 69.167 41.0142 74.2343 40.1437C74.9298 39.0799 57.1446 21.3817 54.0645 17.4165Z" fill="#FFBC33"/>
<path d="M118.151 3.68359C109.308 9.87314 107.818 13.6449 102.949 19.2542C99.4715 23.4128 79.6991 42.0781 80.5933 43.1419C86.1574 44.1091 128.981 42.7551 139.911 30.4727C145.872 21.0917 127.988 3.78031 118.151 3.68359Z" fill="#FFCF48"/>
<path d="M59.1318 19.2542C54.1638 13.7416 52.7728 9.96985 43.9298 3.68359C34.0933 3.68359 16.1093 21.0917 22.1702 30.376C33.1991 42.6584 75.9234 43.9156 81.5869 43.0452C82.2824 41.9814 62.6093 23.4128 59.1318 19.2542Z" stroke="black" stroke-width="6" stroke-miterlimit="10"/>
<path d="M118.151 3.68359C109.308 9.87314 107.818 13.6449 102.949 19.2542C99.4715 23.4128 79.6991 42.0781 80.5933 43.1419C86.1574 44.1091 128.981 42.7551 139.911 30.4727C145.872 21.0917 127.988 3.78031 118.151 3.68359Z" stroke="black" stroke-width="6" stroke-miterlimit="10"/>
<path d="M140.109 53.0066H21.8721C15.3144 53.0066 9.94904 58.229 9.94904 64.612V141.014C9.94904 147.397 15.3144 152.62 21.8721 152.62H140.109C146.667 152.62 152.032 147.397 152.032 141.014V64.612C152.032 58.229 146.667 53.0066 140.109 53.0066Z" fill="#FF563B"/>
<path d="M149.151 70.4148H23.9586C23.9586 70.7049 23.8593 70.8984 23.8593 71.1885V139.37C23.8593 145.076 28.5291 149.718 34.3913 149.718H138.718C148.157 150.395 149.25 145.947 149.25 139.37V71.1885C149.25 70.8984 149.151 70.7049 149.151 70.4148Z" fill="#FF6E50"/>
<path d="M140.109 53.0066H21.8721C15.3144 53.0066 9.94904 58.229 9.94904 64.612V141.014C9.94904 147.397 15.3144 152.62 21.8721 152.62H140.109C146.667 152.62 152.032 147.397 152.032 141.014V64.612C152.032 58.229 146.667 53.0066 140.109 53.0066Z" stroke="black" stroke-width="6" stroke-miterlimit="10"/>
<path d="M95.3978 63.645H66.5837V152.62H95.3978V63.645Z" fill="#FFCF48"/>
<path d="M90.4298 23.9932H71.5516C68.7696 23.9932 66.5837 26.1208 66.5837 28.8287V45.2697C66.5837 47.9776 68.7696 50.1053 71.5516 50.1053H90.4298C93.2119 50.1053 95.3978 47.9776 95.3978 45.2697V28.8287C95.3978 26.1208 93.2119 23.9932 90.4298 23.9932Z" fill="#FFCF48"/>
<path d="M95.3978 63.645H66.5837V152.62H95.3978V63.645Z" stroke="black" stroke-width="6" stroke-miterlimit="10"/>
<path d="M90.4298 23.9932H71.5516C68.7696 23.9932 66.5837 26.1208 66.5837 28.8287V45.2697C66.5837 47.9776 68.7696 50.1053 71.5516 50.1053H90.4298C93.2119 50.1053 95.3978 47.9776 95.3978 45.2697V28.8287C95.3978 26.1208 93.2119 23.9932 90.4298 23.9932Z" stroke="black" stroke-width="6" stroke-miterlimit="10"/>
<path fill-rule="evenodd" clip-rule="evenodd" d="M3.98749 67.5133V53.9736C3.98749 47.0104 9.35287 41.4011 15.9106 41.4011H147.064C153.622 41.4011 158.987 47.0104 158.987 53.9736V67.5133H3.98749Z" fill="#FF563B" stroke="black" stroke-width="6" stroke-miterlimit="10"/>
<path fill-rule="evenodd" clip-rule="evenodd" d="M23.8593 64.4183V53.9735C23.8593 48.6543 28.4298 44.3023 33.9939 44.3023H145.971C152.132 43.8187 156.007 48.8478 156.106 53.9735V64.4183H23.8593Z" fill="#FF6E50"/>
</svg>
