<svg width="15" height="13" viewBox="0 0 15 13" fill="none" xmlns="http://www.w3.org/2000/svg">
<path d="M5.06836 0.634765C4.49414 0.781249 4.04297 1.30273 4.04297 1.82422C4.04297 1.91211 3.90234 1.92383 2.6543 1.94141C1.31836 1.95898 1.24805 1.96484 0.984375 2.09961C0.650391 2.26953 0.345703 2.57422 0.164062 2.92578L0.0292969 3.18945V7.17383V11.1582L0.164062 11.4219C0.357422 11.791 0.667969 12.0957 1.01953 12.2539L1.31836 12.3887H7.5H13.6816L13.9863 12.248C14.3789 12.0723 14.7188 11.709 14.877 11.2812C15 10.9531 15 10.8828 15 7.17969C15 3.99219 14.9883 3.37109 14.9121 3.11914C14.8008 2.74414 14.4141 2.30469 14.0273 2.10547C13.752 1.96484 13.6992 1.95898 12.3516 1.94141L10.9688 1.91797L10.9277 1.70703C10.8457 1.27344 10.6113 0.945312 10.2246 0.740233C9.99609 0.617187 9.92578 0.611327 7.61719 0.599608C6.31055 0.593749 5.16797 0.611327 5.06836 0.634765ZM9.99609 1.47851C10.1367 1.60156 10.1602 1.67187 10.1895 2.07031C10.2188 2.42187 10.2539 2.54492 10.3418 2.60937C10.4297 2.67383 10.7637 2.69141 11.9766 2.69141C13.377 2.69141 13.5176 2.70312 13.7402 2.80859C13.8926 2.88476 14.0273 3.00781 14.1094 3.1543L14.2383 3.38281L14.2266 7.22656C14.209 10.9941 14.209 11.0645 14.0859 11.2227C14.0215 11.3105 13.8926 11.4395 13.8047 11.5039C13.6465 11.627 13.6113 11.627 7.5 11.627C1.38867 11.627 1.35352 11.627 1.19531 11.5039C1.10742 11.4395 0.978516 11.3105 0.914062 11.2227C0.791016 11.0645 0.791016 11.0117 0.791016 7.17383C0.791016 3.33594 0.791016 3.2832 0.914062 3.125C1.21289 2.7207 1.18945 2.72656 3 2.69141C4.86328 2.65625 4.80469 2.67383 4.80469 2.1582C4.80469 1.8125 4.88672 1.57812 5.05664 1.44922C5.17383 1.35547 5.39648 1.34375 7.51172 1.34375H9.83789L9.99609 1.47851Z" fill="black"/>
<path d="M12.3809 3.6992C12.123 3.76366 11.8945 4.05662 11.8945 4.30858C11.8945 4.85936 12.416 5.19334 12.8906 4.94725C13.1367 4.81834 13.2422 4.6367 13.2422 4.32616C13.2422 3.85741 12.8496 3.57616 12.3809 3.6992Z" fill="black"/>
<path d="M6.62109 3.77537C5.29688 4.15037 4.35352 5.15232 4.06641 6.50584C3.71484 8.15818 4.76953 9.98045 6.38086 10.4902C6.91992 10.6601 7.76367 10.7011 8.28516 10.5781C9.62695 10.2617 10.6406 9.21873 10.9277 7.86521C11.0918 7.08592 10.9922 6.36521 10.6113 5.58592C10.2246 4.80662 9.48633 4.15623 8.6543 3.86326C8.17383 3.68748 7.0957 3.64646 6.62109 3.77537ZM8.37891 4.6074C9.66797 5.03513 10.4707 6.44724 10.1719 7.74802C9.74414 9.59373 7.72266 10.4668 6.09375 9.5117C4.04883 8.31638 4.5 5.17576 6.79688 4.54881C7.25391 4.42576 7.89844 4.4492 8.37891 4.6074Z" fill="black"/>
</svg>
