<svg width="20" height="20" viewBox="0 0 20 20" fill="none" xmlns="http://www.w3.org/2000/svg">
<path d="M16.7418 3.17227C14.9414 1.36758 12.5437 0.375 9.9957 0.375C4.73633 0.375 0.456641 4.65469 0.456641 9.91406C0.456641 11.5941 0.894922 13.2355 1.72852 14.6836L0.375 19.625L5.43242 18.2973C6.82461 19.0578 8.39297 19.4574 9.99141 19.4574H9.9957C15.2508 19.4574 19.625 15.1777 19.625 9.91836C19.625 7.37031 18.5422 4.97695 16.7418 3.17227ZM9.9957 17.8504C8.56914 17.8504 7.17266 17.468 5.95664 16.7461L5.66875 16.5742L2.66953 17.3605L3.46875 14.4344L3.27969 14.1336C2.48477 12.8703 2.06797 11.4137 2.06797 9.91406C2.06797 5.54414 5.62578 1.98633 10 1.98633C12.1184 1.98633 14.1078 2.81133 15.6031 4.31094C17.0984 5.81055 18.018 7.8 18.0137 9.91836C18.0137 14.2926 14.3656 17.8504 9.9957 17.8504ZM14.3441 11.9121C14.1078 11.7918 12.9348 11.216 12.7156 11.1387C12.4965 11.057 12.3375 11.0184 12.1785 11.259C12.0195 11.4996 11.5641 12.0324 11.4223 12.1957C11.2848 12.3547 11.143 12.3762 10.9066 12.2559C9.50586 11.5555 8.58633 11.0055 7.6625 9.41992C7.41758 8.99883 7.90742 9.02891 8.36289 8.11797C8.44023 7.95898 8.40156 7.82148 8.34141 7.70117C8.28125 7.58086 7.8043 6.40781 7.60664 5.93086C7.41328 5.4668 7.21563 5.53125 7.06953 5.52266C6.93203 5.51406 6.77305 5.51406 6.61406 5.51406C6.45508 5.51406 6.19727 5.57422 5.97812 5.81055C5.75898 6.05117 5.14453 6.62695 5.14453 7.8C5.14453 8.97305 5.99961 10.1074 6.11563 10.2664C6.23594 10.4254 7.7957 12.8316 10.1891 13.8672C11.7016 14.5203 12.2945 14.5762 13.0508 14.4645C13.5105 14.3957 14.4602 13.8887 14.6578 13.3301C14.8555 12.7715 14.8555 12.2945 14.7953 12.1957C14.7395 12.0883 14.5805 12.0281 14.3441 11.9121Z" fill="white"/>
</svg>
